<svg xmlns="http://www.w3.org/2000/svg" viewBox="0 0 427.35 365.34"><defs><style>.cls-1,.cls-3{fill:none;stroke-miterlimit:10;}.cls-1{stroke:#000;stroke-width:11px;}.cls-2{fill:#c41718;}.cls-3{stroke:#c41718;stroke-width:8.5px;}</style></defs><g id="Layer_2" data-name="Layer 2"><g id="Layer_1-2" data-name="Layer 1"><circle class="cls-1" cx="210.17" cy="182.67" r="177.17"/><path class="cls-2" d="M125.29,111.58l23.8,4.17a33.93,33.93,0,0,1,14.13,5.67,23.69,23.69,0,0,1,8.38,10.51,27.26,27.26,0,0,1-4.67,26.6,23.64,23.64,0,0,1-11.46,7,33.83,33.83,0,0,1-15.21.51l-23.8-4.17Zm16.39,43q6.47,1.14,11-1.84t5.7-9.45c.75-4.32,0-7.92-2.14-10.83s-5.43-4.73-9.75-5.49l-9-1.57-4.84,27.61Z"/><path class="cls-2" d="M189.72,169.5q-5.15-7.2-3.18-18.42l4.9-27.9,14.23,2.5-4.81,27.47q-2.13,12.07,7.44,13.75t11.61-10.41L224.73,129l14,2.46-4.89,27.9q-2,11.22-9.26,16.24t-18.51,3Q194.87,176.71,189.72,169.5ZM209.56,120A8.8,8.8,0,0,1,208,113a8.89,8.89,0,0,1,3.88-6.07,9.46,9.46,0,0,1,7.22-1.47,9.79,9.79,0,0,1,4.57,2.06,9.24,9.24,0,0,1,3.31,8.81,8.79,8.79,0,0,1-3.9,6A10,10,0,0,1,209.56,120Zm10.29-1.83a4,4,0,0,0,1.71-2.74,4.07,4.07,0,0,0-.67-3.19,4.22,4.22,0,0,0-5.82-1,4.11,4.11,0,0,0-1.71,2.77,4,4,0,0,0,.67,3.16,4.32,4.32,0,0,0,5.82,1Z"/><path class="cls-2" d="M292.19,192.74l4.53-26.7L280,185.48l-6.33-1.11-9.18-23.25-4.56,25.95-13.16-2.3,8.83-50.34,11.72,2.06,12.6,32.15,22.35-26L314,144.68,305.27,195Z"/><line class="cls-3" x1="0.73" y1="145.74" x2="426.61" y2="220.41"/></g></g></svg>