<svg xmlns="http://www.w3.org/2000/svg" viewBox="0 0 427.35 365.34"><defs><style>.cls-1,.cls-3{fill:none;stroke-miterlimit:10;}.cls-1{stroke:#000;stroke-width:11px;}.cls-2{fill:#c41718;}.cls-3{stroke:#c41718;stroke-width:8.5px;}</style></defs><g id="Layer_2" data-name="Layer 2"><g id="Layer_1-2" data-name="Layer 1"><circle class="cls-1" cx="210.17" cy="182.67" r="177.17"/><path class="cls-2" d="M90.52,125.06l-12.71-2.23,1.63-9.27,37.06,6.5-1.63,9.28-12.65-2.22-5.63,32.09-11.7-2.06Z"/><path class="cls-2" d="M154.32,160l-1.59,9.05-33.21-5.83,7.26-41.37,32.44,5.69-1.58,9-20.87-3.65-1.22,7,18.38,3.22-1.53,8.75L134,148.65l-1.33,7.57Z"/><path class="cls-2" d="M185.16,163.41l-6.39-1.12-1.93,11-11.7-2.05,7.26-41.37,18.91,3.32a24.12,24.12,0,0,1,9.43,3.57,15.28,15.28,0,0,1,2.79,22.43,14.31,14.31,0,0,1-6.91,4.17l6.64,14.57-12.53-2.2Zm9-18.58a8.15,8.15,0,0,0-5.15-2.55l-6.5-1.14-2.13,12.11,6.5,1.14a8.3,8.3,0,0,0,5.71-.61,5.63,5.63,0,0,0,2.62-4.14A5.69,5.69,0,0,0,194.14,144.83Z"/><path class="cls-2" d="M243.91,176.77l-17.49-3.07-4.66,7.46-11.94-2.09,25.52-38.16,11.52,2,11.07,44.58-12.18-2.14ZM242,167.54l-3-14.17-7.64,12.3Z"/><path class="cls-2" d="M272,189.55a24.53,24.53,0,0,1-7.1-4.65l5.36-8a25.28,25.28,0,0,0,5.92,4.09,25,25,0,0,0,7,2.38q6.75,1.18,7.33-2.18a2.83,2.83,0,0,0-1.46-3,36.29,36.29,0,0,0-5.86-2.89,59.79,59.79,0,0,1-7.42-3.52,13.39,13.39,0,0,1-4.73-4.64,10.1,10.1,0,0,1-1-7.25,12.07,12.07,0,0,1,3.26-6.46,14.06,14.06,0,0,1,7-3.73,25.63,25.63,0,0,1,10.39,0,36,36,0,0,1,7.88,2.33,25,25,0,0,1,6.5,3.91l-5.13,8.05a24.56,24.56,0,0,0-10.9-5.2,9.79,9.79,0,0,0-5.27.14,3.16,3.16,0,0,0-2.06,2.41,2.71,2.71,0,0,0,1.45,2.82,34.48,34.48,0,0,0,5.79,2.78,57.7,57.7,0,0,1,7.45,3.53,13.72,13.72,0,0,1,4.73,4.61,9.87,9.87,0,0,1,1.08,7.22,11.82,11.82,0,0,1-3.25,6.38,14.29,14.29,0,0,1-7.05,3.72,25.45,25.45,0,0,1-10.36,0A38.6,38.6,0,0,1,272,189.55Z"/><path class="cls-2" d="M340.42,193.7l-17.5-3.07-4.66,7.46L306.33,196l25.52-38.16,11.52,2,11.06,44.58-12.17-2.14Zm-1.92-9.23-3-14.17-7.64,12.3Z"/><line class="cls-3" x1="0.73" y1="145.74" x2="426.61" y2="220.41"/></g></g></svg>