<svg xmlns="http://www.w3.org/2000/svg" viewBox="0 0 427.35 365.34"><defs><style>.cls-1,.cls-3{fill:none;stroke-miterlimit:10;}.cls-1{stroke:#000;stroke-width:11px;}.cls-2{fill:#c41718;}.cls-3{stroke:#c41718;stroke-width:8.5px;}</style></defs><g id="Layer_2" data-name="Layer 2"><g id="Layer_1-2" data-name="Layer 1"><circle class="cls-1" cx="210.17" cy="182.67" r="177.17"/><path class="cls-2" d="M99.58,144.26l-5.19,3.9L92.57,158.5l-11.58-2,7.26-41.37,11.58,2-3,17.2,19-14.39,12.88,2.26-20.12,15.36,13.75,26.17-13.59-2.39Z"/><path class="cls-2" d="M136.32,164.17a21.47,21.47,0,0,1,6.58-37.47,26.84,26.84,0,0,1,23.58,4.13,21.48,21.48,0,0,1-6.58,37.47,26.83,26.83,0,0,1-23.58-4.13Zm18.94-5.33a10.85,10.85,0,0,0,4.75-3.46A13.85,13.85,0,0,0,162.17,143a10.85,10.85,0,0,0-3.28-4.87,11.31,11.31,0,0,0-5.42-2.47,11.18,11.18,0,0,0-5.93.48,10.79,10.79,0,0,0-4.75,3.46A13.89,13.89,0,0,0,140.62,152a10.81,10.81,0,0,0,3.29,4.87,11.31,11.31,0,0,0,5.42,2.47A11.19,11.19,0,0,0,155.26,158.84Z"/><path class="cls-2" d="M184.72,174.24a24.21,24.21,0,0,1-7.1-4.66l5.35-8a25.12,25.12,0,0,0,5.93,4.08,24.57,24.57,0,0,0,7,2.39q6.74,1.18,7.33-2.19a2.83,2.83,0,0,0-1.46-3,35.89,35.89,0,0,0-5.86-2.89,60,60,0,0,1-7.43-3.52,13.39,13.39,0,0,1-4.73-4.64,10.16,10.16,0,0,1-1-7.25,12,12,0,0,1,3.27-6.46,14.06,14.06,0,0,1,7-3.74,25.82,25.82,0,0,1,10.39,0,36.5,36.5,0,0,1,7.87,2.32,25,25,0,0,1,6.5,3.92l-5.12,8.05a24.48,24.48,0,0,0-10.91-5.2,9.75,9.75,0,0,0-5.26.14,3.14,3.14,0,0,0-2.07,2.41,2.7,2.7,0,0,0,1.46,2.81,34.54,34.54,0,0,0,5.78,2.79,57.06,57.06,0,0,1,7.45,3.53,13.63,13.63,0,0,1,4.74,4.6,9.94,9.94,0,0,1,1.07,7.23,11.74,11.74,0,0,1-3.24,6.37,14.39,14.39,0,0,1-7,3.73,25.5,25.5,0,0,1-10.37,0A39,39,0,0,1,184.72,174.24Z"/><path class="cls-2" d="M234.89,150.39l-12.7-2.23,1.63-9.28,37.05,6.5-1.63,9.28-12.64-2.22L241,184.53l-11.7-2.05Z"/><path class="cls-2" d="M279.53,175.83l-5.19,3.9-1.82,10.34-11.58-2,7.26-41.37,11.58,2-3,17.2,19-14.39,12.88,2.26-20.12,15.36,13.75,26.17-13.59-2.39Z"/><path class="cls-2" d="M335.51,192.84,318,189.77l-4.66,7.46-11.94-2.09L326.94,157l11.53,2,11.06,44.58-12.17-2.14Zm-1.91-9.23-3-14.18L323,181.74Z"/><line class="cls-3" x1="0.73" y1="145.74" x2="426.61" y2="220.41"/></g></g></svg>