<svg xmlns="http://www.w3.org/2000/svg" viewBox="0 0 427.35 365.34"><defs><style>.cls-1,.cls-3{fill:none;stroke-miterlimit:10;}.cls-1{stroke:#fff;stroke-width:11px;}.cls-2{fill:#c41718;}.cls-3{stroke:#c41718;stroke-width:8.5px;}</style></defs><g id="Layer_2" data-name="Layer 2"><g id="Layer_1-2" data-name="Layer 1"><circle class="cls-1" cx="210.17" cy="182.67" r="177.17"/><path class="cls-2" d="M84.55,155.79a29.53,29.53,0,0,1-8.64-5.66l6.52-9.68a30.63,30.63,0,0,0,7.2,5,30.29,30.29,0,0,0,8.54,2.9q8.19,1.44,8.91-2.66a3.46,3.46,0,0,0-1.77-3.61,45.52,45.52,0,0,0-7.13-3.51,72.09,72.09,0,0,1-9-4.29,16.2,16.2,0,0,1-5.76-5.64q-2.19-3.57-1.27-8.82a14.59,14.59,0,0,1,4-7.86,17.06,17.06,0,0,1,8.54-4.54,31.27,31.27,0,0,1,12.64,0,43.77,43.77,0,0,1,9.58,2.83,30.39,30.39,0,0,1,7.91,4.76l-6.24,9.8a29.73,29.73,0,0,0-13.27-6.33q-4.24-.75-6.4.17a3.86,3.86,0,0,0-2.52,2.94A3.31,3.31,0,0,0,98.11,125a42.27,42.27,0,0,0,7,3.38,70.22,70.22,0,0,1,9.07,4.3,16.76,16.76,0,0,1,5.76,5.6q2.23,3.56,1.31,8.8a14.43,14.43,0,0,1-4,7.75,17.51,17.51,0,0,1-8.58,4.54,31.1,31.1,0,0,1-12.61,0A47.1,47.1,0,0,1,84.55,155.79Z"/><path class="cls-2" d="M155,149.84l-6.32,4.75-2.21,12.58-14.09-2.47,8.83-50.33,14.09,2.47-3.67,20.92,23.16-17.5L190.43,123,166,141.69l16.72,31.84-16.53-2.9Z"/><path class="cls-2" d="M202.44,125.11l14.24,2.5-6.85,39,24,4.22-2,11.28-38.25-6.71Z"/><path class="cls-2" d="M287,180.49l-1.93,11-40.41-7.09,8.83-50.33L293,141,291,152l-25.38-4.45L264.17,156,286.53,160l-1.87,10.64-22.36-3.92-1.62,9.2Z"/><path class="cls-2" d="M343.47,152.19a18,18,0,0,1-5.72,32.64,29.3,29.3,0,0,1-12.26.19l-8.78-1.54-2.3,13.15-14.24-2.49L309,143.81l23,4A29.13,29.13,0,0,1,343.47,152.19Zm-9.93,20.71a6.85,6.85,0,0,0,3.18-5,7,7,0,0,0-1.27-5.85q-1.89-2.34-6.27-3.1l-7.91-1.39-2.59,14.74,7.91,1.39Q331,174.42,333.54,172.9Z"/><line class="cls-3" x1="0.73" y1="145.74" x2="426.61" y2="220.41"/></g></g></svg>