<svg xmlns="http://www.w3.org/2000/svg" viewBox="0 0 427.35 365.34"><defs><style>.cls-1,.cls-3{fill:none;stroke-miterlimit:10;}.cls-1{stroke:#000;stroke-width:11px;}.cls-2{fill:#c41718;}.cls-3{stroke:#c41718;stroke-width:8.5px;}</style></defs><g id="Layer_2" data-name="Layer 2"><g id="Layer_1-2" data-name="Layer 1"><circle class="cls-1" cx="210.17" cy="182.67" r="177.17"/><path class="cls-2" d="M153.89,168.48l4.53-26.71-16.75,19.45-6.33-1.11-9.18-23.25-4.56,25.95-13.16-2.31,8.83-50.33L129,112.23l12.6,32.15,22.35-26,11.72,2L167,170.77Z"/><path class="cls-2" d="M219.67,169.93l-21.29-3.73-5.67,9.09-14.52-2.55,31.05-46.44,14,2.46L236.72,183l-14.82-2.6Zm-2.33-11.22-3.65-17.25-9.3,15Z"/><path class="cls-2" d="M256.76,134.64l14.24,2.5-6.85,39,24,4.22-2,11.28L247.93,185Z"/><path class="cls-2" d="M307.81,143.6l14.24,2.5-8.83,50.33L299,193.93Zm12.35-13.33,13.66,2.4-15.44,8.56-9.78-1.72Z"/><path d="M120.47,216.5l-7.73-1.35,1-5.65,22.54,4-1,5.64-7.69-1.35-3.43,19.52L117,236Z"/><path d="M171,219.55l-15.2,23.28-7-1.23-6.34-27,7.69,1.35,4,17.59L164,218.32Z"/><path d="M179.17,244.29q-2.58-3.6-1.59-9.21l2.44-14,7.12,1.25-2.41,13.73q-1,6,3.73,6.88t5.8-5.21l2.41-13.73,7,1.23-2.45,13.95q-1,5.61-4.63,8.12t-9.25,1.53Q181.74,247.89,179.17,244.29Zm9.92-24.76a4.62,4.62,0,0,1,1.14-6.5,4.69,4.69,0,0,1,3.61-.74,4.85,4.85,0,0,1,2.28,1,4.64,4.64,0,0,1,1.44,2,4.52,4.52,0,0,1,.22,2.42,4.43,4.43,0,0,1-1.95,3,4.78,4.78,0,0,1-3.6.74A4.72,4.72,0,0,1,189.09,219.53Zm5.14-.91a2,2,0,0,0,.85-1.37,2.06,2.06,0,0,0-1.68-2.44,2,2,0,0,0-1.56.33,2.07,2.07,0,0,0-.86,1.39,2,2,0,0,0,.34,1.58,2.05,2.05,0,0,0,1.35.83A2,2,0,0,0,194.23,218.62Z"/><path d="M223.45,247.8l-3.89-.69-1.17,6.69-7.12-1.25,4.42-25.16,11.5,2a14.61,14.61,0,0,1,5.74,2.17,9,9,0,0,1,3.31,3.92,9.06,9.06,0,0,1,.5,5.18,8.91,8.91,0,0,1-2.11,4.54,8.8,8.8,0,0,1-4.21,2.54l4,8.86-7.62-1.34Zm5.46-11.31a5,5,0,0,0-3.13-1.55l-4-.7-1.29,7.37,3.95.7a5.13,5.13,0,0,0,3.48-.37,3.94,3.94,0,0,0,.95-5.45Z"/><path d="M250.72,258.27a12.69,12.69,0,0,1-4.13-5.52A13.83,13.83,0,0,1,249,239.23a12.74,12.74,0,0,1,5.76-3.79,15.13,15.13,0,0,1,7.4-.43,15.52,15.52,0,0,1,6,2.32,12.25,12.25,0,0,1,4,4.33l-5.25,3.3a7.58,7.58,0,0,0-5.42-4,7.48,7.48,0,0,0-3.81.26,6.3,6.3,0,0,0-2.92,2.1,8,8,0,0,0-1.54,3.6,7.84,7.84,0,0,0,.22,3.91,6.32,6.32,0,0,0,2,3,7.37,7.37,0,0,0,3.49,1.54,7.56,7.56,0,0,0,6.45-1.9l3.81,4.89a12.1,12.1,0,0,1-5.22,2.71,16.34,16.34,0,0,1-13.24-2.78Z"/><path d="M283.2,239.23l7.12,1.25-4.41,25.17-7.12-1.25Z"/><line class="cls-3" x1="0.73" y1="145.74" x2="426.61" y2="220.41"/></g></g></svg>