<svg xmlns="http://www.w3.org/2000/svg" viewBox="0 0 427.35 365.34"><defs><style>.cls-1,.cls-4{fill:none;stroke-miterlimit:10;}.cls-1{stroke:#fff;stroke-width:11px;}.cls-2{fill:#c41718;}.cls-3{fill:#fff;}.cls-4{stroke:#c41718;stroke-width:8.5px;}</style></defs><g id="Layer_2" data-name="Layer 2"><g id="Layer_1-2" data-name="Layer 1"><circle class="cls-1" cx="210.17" cy="182.67" r="177.17"/><path class="cls-2" d="M150,115.91l-30.4,46.55-14-2.46L92.9,105.9l15.39,2.69,7.91,35.19,19.7-30.34Z"/><path class="cls-2" d="M193.63,164.11l-1.92,11L151.3,168l8.83-50.33,39.47,6.92-1.93,11-25.38-4.46-1.49,8.49,22.36,3.92-1.86,10.64-22.37-3.92-1.61,9.2Z"/><path class="cls-2" d="M215.63,127.43l14.24,2.49L223,169l24,4.21-2,11.29-38.26-6.71Z"/><path class="cls-2" d="M268.37,186.15a25.29,25.29,0,0,1-8.25-11.05,27.59,27.59,0,0,1,4.74-27,25.38,25.38,0,0,1,11.52-7.58,30.22,30.22,0,0,1,14.79-.85,30.88,30.88,0,0,1,12,4.63,24.11,24.11,0,0,1,8,8.66l-10.49,6.6q-3.87-6.75-10.83-8a14.92,14.92,0,0,0-7.62.51,12.78,12.78,0,0,0-5.85,4.2,17.19,17.19,0,0,0-2.64,15,12.66,12.66,0,0,0,4.08,5.94,14.89,14.89,0,0,0,7,3.08q7,1.22,12.9-3.82l7.62,9.79a24.23,24.23,0,0,1-10.44,5.43A31,31,0,0,1,282,192,30.22,30.22,0,0,1,268.37,186.15Z"/><path class="cls-2" d="M326.15,146.81l14.24,2.5-8.83,50.33-14.24-2.49Zm12.34-13.32,13.66,2.4-15.43,8.55-9.78-1.71Z"/><path class="cls-3" d="M120.47,216.5l-7.73-1.35,1-5.65,22.54,4-1,5.64-7.69-1.35-3.43,19.52L117,236Z"/><path class="cls-3" d="M171,219.55l-15.2,23.28-7-1.23-6.34-27,7.69,1.35,4,17.59L164,218.32Z"/><path class="cls-3" d="M179.17,244.29q-2.58-3.6-1.59-9.21l2.44-14,7.12,1.25-2.41,13.73q-1,6,3.73,6.88t5.8-5.21l2.41-13.73,7,1.23-2.45,13.95q-1,5.61-4.63,8.12t-9.25,1.53Q181.74,247.89,179.17,244.29Zm9.92-24.76a4.62,4.62,0,0,1,1.14-6.5,4.69,4.69,0,0,1,3.61-.74,4.8,4.8,0,0,1,2.28,1,4.67,4.67,0,0,1,1.44,2,4.57,4.57,0,0,1,.22,2.43,4.39,4.39,0,0,1-1.95,3,4.78,4.78,0,0,1-3.6.74A4.72,4.72,0,0,1,189.09,219.53Zm5.14-.91a2,2,0,0,0,.85-1.37,2,2,0,0,0-.33-1.6,2.13,2.13,0,0,0-2.91-.51,2.07,2.07,0,0,0-.86,1.39,2,2,0,0,0,.34,1.58,2.16,2.16,0,0,0,2.91.51Z"/><path class="cls-3" d="M223.45,247.8l-3.89-.69-1.17,6.69-7.12-1.25,4.42-25.16,11.5,2a14.46,14.46,0,0,1,5.74,2.17,9.3,9.3,0,0,1,1.7,13.64,8.8,8.8,0,0,1-4.21,2.54l4,8.86-7.62-1.34Zm5.46-11.31a4.93,4.93,0,0,0-3.13-1.55l-4-.7-1.29,7.37,3.95.7a5.13,5.13,0,0,0,3.48-.37,3.94,3.94,0,0,0,.95-5.45Z"/><path class="cls-3" d="M250.72,258.27a12.69,12.69,0,0,1-4.13-5.52A13.83,13.83,0,0,1,249,239.23a12.74,12.74,0,0,1,5.76-3.79,15.14,15.14,0,0,1,7.4-.43,15.52,15.52,0,0,1,6,2.32,12.25,12.25,0,0,1,4,4.33l-5.25,3.3a7.58,7.58,0,0,0-5.42-4,7.48,7.48,0,0,0-3.81.26,6.3,6.3,0,0,0-2.92,2.1,8.58,8.58,0,0,0-1.32,7.51,6.32,6.32,0,0,0,2,3,7.37,7.37,0,0,0,3.49,1.54,7.56,7.56,0,0,0,6.45-1.9l3.81,4.89a12.1,12.1,0,0,1-5.22,2.71,16.34,16.34,0,0,1-13.24-2.78Z"/><path class="cls-3" d="M283.2,239.23l7.12,1.25-4.41,25.17-7.12-1.25Z"/><line class="cls-4" x1="0.73" y1="145.74" x2="426.61" y2="220.41"/></g></g></svg>