<svg xmlns="http://www.w3.org/2000/svg" viewBox="0 0 427.35 365.34"><defs><style>.cls-1,.cls-3{fill:none;stroke-miterlimit:10;}.cls-1{stroke:#000;stroke-width:11px;}.cls-2{fill:#c41718;}.cls-3{stroke:#c41718;stroke-width:8.5px;}</style></defs><g id="Layer_2" data-name="Layer 2"><g id="Layer_1-2" data-name="Layer 1"><circle class="cls-1" cx="210.17" cy="182.67" r="177.17"/><path class="cls-2" d="M112.1,151.06l-21.28-3.73-5.67,9.09-14.53-2.55,31.05-46.44,14,2.46,13.46,54.25-14.81-2.6Zm-2.33-11.22-3.64-17.24-9.3,15Z"/><path class="cls-2" d="M185.81,174.08l4.54-26.71-16.76,19.45-6.32-1.11-9.19-23.25-4.55,25.95-13.16-2.31,8.83-50.33,11.72,2.06L173.51,150l22.35-26L207.58,126l-8.68,50.36Z"/><path class="cls-2" d="M237.29,142.56l-1.94,11.08,22.21,3.9-1.93,11-22.21-3.9-3,17.26-14.24-2.5L225,129.07,264.46,136l-1.93,11Z"/><path class="cls-2" d="M278.33,138.43l14.24,2.49-8.83,50.34-14.24-2.5Zm12.35-13.33,13.66,2.4-15.44,8.56-9.78-1.72Z"/><path class="cls-2" d="M323.69,179.44l-6.32,4.74-2.21,12.59-14.09-2.47L309.9,144,324,146.44l-3.67,20.92,23.16-17.51,15.67,2.75-24.47,18.69,16.72,31.83-16.54-2.9Z"/><line class="cls-3" x1="0.73" y1="145.74" x2="426.61" y2="220.41"/></g></g></svg>