<svg xmlns="http://www.w3.org/2000/svg" viewBox="0 0 427.35 365.34"><defs><style>.cls-1,.cls-3{fill:none;stroke-miterlimit:10;}.cls-1{stroke:#fff;stroke-width:11px;}.cls-2{fill:#c41718;}.cls-3{stroke:#c41718;stroke-width:8.5px;}</style></defs><g id="Layer_2" data-name="Layer 2"><g id="Layer_1-2" data-name="Layer 1"><circle class="cls-1" cx="210.17" cy="182.67" r="177.17"/><path class="cls-2" d="M104.64,132.78,117.22,135l-3.66,20.85a33.32,33.32,0,0,1-10.75,3,40.19,40.19,0,0,1-11.51-.32,30.42,30.42,0,0,1-13.65-5.84,25.31,25.31,0,0,1-8.29-11.05,27.67,27.67,0,0,1,4.74-27,25.27,25.27,0,0,1,11.63-7.55,31.24,31.24,0,0,1,15-.81A32.56,32.56,0,0,1,113,110.83a24.78,24.78,0,0,1,8.15,8.47l-10.5,6.61a16.19,16.19,0,0,0-11.24-7.75,14.36,14.36,0,0,0-11.11,2.09q-4.65,3.23-5.79,9.77a15.33,15.33,0,0,0,.49,7.75,13,13,0,0,0,4.14,6,15,15,0,0,0,7.08,3.13,18.47,18.47,0,0,0,8-.3Z"/><path class="cls-2" d="M164.3,160.22,143,156.49l-5.67,9.08L122.82,163l31.05-46.44,14,2.46,13.46,54.24-14.81-2.6ZM162,149l-3.64-17.24-9.3,15Z"/><path class="cls-2" d="M216.92,165.75l-7.77-1.37-2.34,13.38-14.24-2.5,8.83-50.33,23,4a29.13,29.13,0,0,1,11.46,4.34,18.59,18.59,0,0,1,3.41,27.28,17.53,17.53,0,0,1-8.42,5.08L239,183.4l-15.25-2.68Zm10.93-22.62c-1.26-1.55-3.35-2.59-6.27-3.1l-7.91-1.39-2.59,14.74,7.91,1.39c2.92.51,5.24.27,6.95-.74a6.85,6.85,0,0,0,3.18-5A7,7,0,0,0,227.85,143.13Z"/><path class="cls-2" d="M288.4,182l-21.28-3.73-5.67,9.09-14.52-2.55,31-46.44,14,2.46,13.46,54.24-14.82-2.59Zm-2.32-11.23-3.65-17.24-9.3,15ZM290.25,125l13.66,2.39L288.47,136l-9.78-1.72Z"/><path class="cls-2" d="M361.22,193.21l-2,11.29-45.09-7.91,1.57-8.91L346.39,162l-24.74-4.34,2-11.29L367,154l-1.56,8.91-30.67,25.68Zm2.22-55.34-11.26,9.29-11.79-2.07L333,132.52l9.06,1.59,5.23,6.55,7.14-4.38Z"/><line class="cls-3" x1="0.73" y1="145.74" x2="426.61" y2="220.41"/></g></g></svg>