<svg xmlns="http://www.w3.org/2000/svg" viewBox="0 0 427.35 365.34"><defs><style>.cls-1,.cls-3{fill:none;stroke-miterlimit:10;}.cls-1{stroke:#fff;stroke-width:11px;}.cls-2{fill:#c41718;}.cls-3{stroke:#c41718;stroke-width:8.5px;}</style></defs><g id="Layer_2" data-name="Layer 2"><g id="Layer_1-2" data-name="Layer 1"><circle class="cls-1" cx="210.17" cy="182.67" r="177.17"/><path class="cls-2" d="M89.3,105.27l23.8,4.17a34,34,0,0,1,14.13,5.66,23.71,23.71,0,0,1,8.38,10.52,27.29,27.29,0,0,1-4.66,26.6,23.65,23.65,0,0,1-11.46,7,33.68,33.68,0,0,1-15.21.52l-23.8-4.17Zm16.39,43c4.32.76,8,.14,11-1.84s4.94-5.14,5.69-9.45,0-7.93-2.14-10.83-5.43-4.73-9.74-5.49l-9-1.58-4.84,27.61Z"/><path class="cls-2" d="M155.88,116.94l14.24,2.5-8.83,50.33-14.23-2.49Zm12.35-13.32,13.66,2.4-15.44,8.55-9.78-1.71Z"/><path class="cls-2" d="M187.45,122.48l14.24,2.5-6.85,39,24,4.22-2,11.28-38.25-6.71Z"/><path class="cls-2" d="M286.38,139.84l-8.82,50.33-11.72-2.06L248.32,157.4l-4.7,26.82-14-2.45,8.83-50.33,11.72,2.05,17.51,30.72,4.71-26.82Z"/><path class="cls-2" d="M330.25,189.33,309,185.6l-5.67,9.09-14.53-2.55,31.05-46.44,14,2.46,13.46,54.25-14.81-2.6Zm-2.33-11.23-3.64-17.24-9.3,15Z"/><line class="cls-3" x1="0.73" y1="145.74" x2="426.61" y2="220.41"/></g></g></svg>