<svg width="68" height="68" viewBox="0 0 68 68" fill="none" xmlns="http://www.w3.org/2000/svg">
<path d="M48.1667 5.66797H19.8333C12.0093 5.66797 5.66666 12.0106 5.66666 19.8346V48.168C5.66666 55.992 12.0093 62.3346 19.8333 62.3346H48.1667C55.9907 62.3346 62.3333 55.992 62.3333 48.168V19.8346C62.3333 12.0106 55.9907 5.66797 48.1667 5.66797Z" stroke="white" stroke-width="2" stroke-linecap="round" stroke-linejoin="round"/>
<path d="M45.3333 32.2139C45.683 34.5719 45.2802 36.9802 44.1823 39.0961C43.0844 41.212 41.3473 42.9279 39.2179 43.9996C37.0886 45.0714 34.6756 45.4444 32.3221 45.0657C29.9685 44.687 27.7943 43.5758 26.1087 41.8902C24.4231 40.2046 23.3119 38.0304 22.9332 35.6768C22.5545 33.3233 22.9275 30.9103 23.9993 28.781C25.071 26.6517 26.7869 24.9145 28.9028 23.8166C31.0187 22.7187 33.427 22.3159 35.785 22.6656C38.1903 23.0222 40.4171 24.143 42.1365 25.8624C43.8559 27.5818 44.9767 29.8086 45.3333 32.2139Z" stroke="white" stroke-width="2" stroke-linecap="round" stroke-linejoin="round"/>
<path d="M49.5833 18.418H49.6117" stroke="white" stroke-width="2" stroke-linecap="round" stroke-linejoin="round"/>
</svg>
