<svg width="390" height="344" viewBox="0 0 390 344" fill="none" xmlns="http://www.w3.org/2000/svg">
<circle cx="195" cy="172" r="169.701" stroke="#CA0000" stroke-width="3"/>
<path d="M85.1803 172.264H88.6363V182.092C87.3883 183.124 85.9363 183.916 84.2803 184.468C82.6243 185.02 80.8963 185.296 79.0963 185.296C76.5523 185.296 74.2603 184.744 72.2203 183.64C70.1803 182.512 68.5723 180.976 67.3963 179.032C66.2443 177.064 65.6683 174.856 65.6683 172.408C65.6683 169.96 66.2443 167.752 67.3963 165.784C68.5723 163.816 70.1803 162.28 72.2203 161.176C74.2843 160.072 76.6003 159.52 79.1683 159.52C81.1843 159.52 83.0083 159.856 84.6403 160.528C86.2963 161.176 87.7003 162.136 88.8523 163.408L86.6203 165.64C84.6043 163.696 82.1683 162.724 79.3123 162.724C77.3923 162.724 75.6643 163.144 74.1283 163.984C72.6163 164.8 71.4283 165.952 70.5643 167.44C69.7003 168.904 69.2683 170.56 69.2683 172.408C69.2683 174.232 69.7003 175.888 70.5643 177.376C71.4283 178.84 72.6163 179.992 74.1283 180.832C75.6643 181.672 77.3803 182.092 79.2763 182.092C81.5323 182.092 83.5003 181.552 85.1803 180.472V172.264ZM144.525 178.708H131.133L128.361 185.008H124.653L136.065 159.808H139.629L151.077 185.008H147.297L144.525 178.708ZM143.265 175.828L137.829 163.48L132.393 175.828H143.265ZM204.624 185.008L199.188 177.268C198.516 177.316 197.988 177.34 197.604 177.34H191.376V185.008H187.776V159.808H197.604C200.868 159.808 203.436 160.588 205.308 162.148C207.18 163.708 208.116 165.856 208.116 168.592C208.116 170.536 207.636 172.192 206.676 173.56C205.716 174.928 204.348 175.924 202.572 176.548L208.548 185.008H204.624ZM197.496 174.28C199.776 174.28 201.516 173.788 202.716 172.804C203.916 171.82 204.516 170.416 204.516 168.592C204.516 166.768 203.916 165.376 202.716 164.416C201.516 163.432 199.776 162.94 197.496 162.94H191.376V174.28H197.496ZM262.928 178.708H249.536L246.764 185.008H243.056L254.468 159.808H258.032L269.48 185.008H265.7L262.928 178.708ZM261.668 175.828L256.232 163.48L250.796 175.828H261.668ZM258.464 153.076H262.856L256.808 157.756H253.568L258.464 153.076ZM325.008 181.876V185.008H303.948V182.56L319.788 162.94H304.2V159.808H324.54V162.256L308.772 181.876H325.008ZM320.94 153.076L316.152 157.756H312.84L308.052 153.076H311.184L314.496 155.812L317.808 153.076H320.94Z" fill="#D63F3F"/>
</svg>
