<?xml version="1.0" encoding="utf-8"?>
<!-- Generator: Adobe Illustrator 25.2.1, SVG Export Plug-In . SVG Version: 6.00 Build 0)  -->
<svg version="1.1" id="Layer_1" xmlns="http://www.w3.org/2000/svg" xmlns:xlink="http://www.w3.org/1999/xlink" x="0px" y="0px"
	 viewBox="0 0 907.1 907.1" style="enable-background:new 0 0 907.1 907.1;" xml:space="preserve">
<style type="text/css">
	.st0{fill:#BE1622;}
	.st1{clip-path:url(#SVGID_2_);fill:#FFFFFF;}
	.st2{fill:none;stroke:#020203;stroke-width:11;stroke-miterlimit:10;}
	.st3{fill:none;stroke:#C41718;stroke-width:8.5;stroke-miterlimit:10;}
	.st4{clip-path:url(#SVGID_4_);fill:#FFFFFF;}
	.st5{fill:#FFFFFF;}
	.st6{fill:#C41718;}
	.st7{fill:none;stroke:#000000;stroke-width:8.5;stroke-miterlimit:10;}
	.st8{fill:none;stroke:#000000;stroke-width:11;stroke-miterlimit:10;}
</style>
<g>
	<path d="M208.3,591.2c-3.9-1-7.1-2.4-9.5-4.1l4.7-10.7c2.3,1.5,4.9,2.7,8,3.6c3,0.9,6,1.4,8.9,1.4c5.5,0,8.3-1.4,8.3-4.2
		c0-1.5-0.8-2.5-2.4-3.2c-1.6-0.7-4.1-1.4-7.6-2.2c-3.8-0.8-7.1-1.7-9.6-2.7c-2.6-0.9-4.8-2.5-6.6-4.6c-1.9-2.1-2.8-4.9-2.8-8.5
		c0-3.1,0.9-5.9,2.6-8.4c1.7-2.5,4.2-4.5,7.6-5.9c3.4-1.5,7.5-2.2,12.4-2.2c3.4,0,6.7,0.4,9.9,1.1c3.3,0.8,6.1,1.9,8.6,3.3
		l-4.5,10.7c-4.9-2.6-9.6-3.9-14.2-3.9c-2.9,0-5,0.4-6.3,1.3c-1.3,0.9-2,2-2,3.3c0,1.4,0.8,2.4,2.3,3.1c1.6,0.7,4.1,1.4,7.5,2.1
		c3.9,0.8,7.1,1.7,9.7,2.7c2.6,0.9,4.8,2.5,6.6,4.5c1.9,2.1,2.8,4.9,2.8,8.4c0,3.1-0.9,5.8-2.6,8.3c-1.7,2.5-4.3,4.5-7.7,6
		c-3.4,1.5-7.5,2.2-12.4,2.2C216.2,592.8,212.2,592.2,208.3,591.2z"/>
	<path d="M274.4,552.1h-15.7v-11.5h45.8v11.5h-15.6v39.6h-14.5V552.1z"/>
	<path d="M334.9,589.3c-4.3-2.3-7.7-5.5-10.1-9.5c-2.5-4-3.7-8.6-3.7-13.7s1.2-9.6,3.7-13.7c2.5-4,5.8-7.2,10.1-9.5
		c4.3-2.3,9.2-3.4,14.6-3.4s10.3,1.1,14.6,3.4c4.3,2.3,7.7,5.5,10.1,9.5c2.5,4,3.7,8.6,3.7,13.7s-1.2,9.6-3.7,13.7
		c-2.5,4-5.8,7.2-10.1,9.5c-4.3,2.3-9.2,3.4-14.6,3.4S339.2,591.6,334.9,589.3z M356.5,579c2.1-1.2,3.7-2.9,5-5.1
		c1.2-2.2,1.8-4.8,1.8-7.6c0-2.9-0.6-5.4-1.8-7.6c-1.2-2.2-2.9-3.9-5-5.1c-2.1-1.2-4.4-1.8-7-1.8c-2.6,0-4.9,0.6-7,1.8
		c-2.1,1.2-3.7,2.9-5,5.1c-1.2,2.2-1.8,4.8-1.8,7.6c0,2.9,0.6,5.4,1.8,7.6c1.2,2.2,2.9,3.9,5,5.1c2.1,1.2,4.4,1.8,7,1.8
		C352.1,580.8,354.4,580.2,356.5,579z"/>
	<path d="M435.5,542.9c3.4,1.5,6,3.7,7.9,6.6c1.8,2.8,2.8,6.2,2.8,10c0,3.8-0.9,7.2-2.8,10c-1.9,2.8-4.5,5-7.9,6.5
		c-3.4,1.5-7.4,2.3-12,2.3h-8.9v13.4h-14.5v-51.1h23.4C428.1,540.6,432.1,541.4,435.5,542.9z M429.3,565.1c1.5-1.3,2.3-3.1,2.3-5.5
		c0-2.4-0.8-4.2-2.3-5.5c-1.5-1.3-3.7-2-6.7-2h-8v15h8C425.5,567,427.8,566.3,429.3,565.1z"/>
	<path d="M503.1,542.9c3.4,1.5,6,3.7,7.9,6.6c1.8,2.8,2.8,6.2,2.8,10c0,3.8-0.9,7.2-2.8,10c-1.9,2.8-4.5,5-7.9,6.5
		c-3.4,1.5-7.4,2.3-12,2.3h-8.9v13.4h-14.5v-51.1h23.4C495.7,540.6,499.7,541.4,503.1,542.9z M496.9,565.1c1.5-1.3,2.3-3.1,2.3-5.5
		c0-2.4-0.8-4.2-2.3-5.5c-1.5-1.3-3.7-2-6.7-2h-8v15h8C493.2,567,495.4,566.3,496.9,565.1z"/>
	<path d="M576.4,580.6v11.2h-41v-51.1h40.1v11.2h-25.8v8.6h22.7v10.8h-22.7v9.3H576.4z"/>
	<path d="M621.4,578.2h-7.9v13.6h-14.5v-51.1h23.4c4.6,0,8.6,0.8,12,2.3c3.4,1.5,6,3.7,7.9,6.6c1.8,2.8,2.8,6.2,2.8,10
		c0,3.7-0.9,6.9-2.6,9.7c-1.7,2.8-4.2,4.9-7.4,6.5l11,16.1h-15.5L621.4,578.2z M628.3,554c-1.5-1.3-3.7-2-6.7-2h-8v15h8
		c3,0,5.2-0.6,6.7-1.9c1.5-1.3,2.3-3.1,2.3-5.5C630.5,557.2,629.8,555.3,628.3,554z"/>
	<path d="M673.6,591.2c-3.9-1-7.1-2.4-9.5-4.1l4.7-10.7c2.3,1.5,4.9,2.7,8,3.6c3,0.9,6,1.4,8.9,1.4c5.5,0,8.3-1.4,8.3-4.2
		c0-1.5-0.8-2.5-2.4-3.2c-1.6-0.7-4.1-1.4-7.6-2.2c-3.8-0.8-7.1-1.7-9.6-2.7c-2.6-0.9-4.8-2.5-6.6-4.6c-1.9-2.1-2.8-4.9-2.8-8.5
		c0-3.1,0.9-5.9,2.6-8.4c1.7-2.5,4.2-4.5,7.6-5.9c3.4-1.5,7.5-2.2,12.4-2.2c3.4,0,6.7,0.4,9.9,1.1c3.3,0.8,6.1,1.9,8.6,3.3
		l-4.5,10.7c-4.9-2.6-9.6-3.9-14.2-3.9c-2.9,0-5,0.4-6.3,1.3c-1.3,0.9-2,2-2,3.3c0,1.4,0.8,2.4,2.3,3.1c1.6,0.7,4.1,1.4,7.5,2.1
		c3.9,0.8,7.1,1.7,9.7,2.7c2.6,0.9,4.8,2.5,6.6,4.5c1.9,2.1,2.8,4.9,2.8,8.4c0,3.1-0.9,5.8-2.6,8.3c-1.7,2.5-4.3,4.5-7.7,6
		c-3.4,1.5-7.5,2.2-12.4,2.2C681.5,592.8,677.5,592.2,673.6,591.2z"/>
	<path d="M258.7,691.9c-4.3-2.3-7.6-5.4-10-9.5c-2.4-4-3.6-8.6-3.6-13.7c0-5.1,1.2-9.7,3.6-13.7c2.4-4,5.8-7.2,10-9.5
		c4.3-2.3,9.1-3.4,14.4-3.4c4.7,0,8.9,0.8,12.6,2.5c3.7,1.7,6.9,4,9.3,7.2l-9.2,8.3c-3.3-4-7.3-6-12-6c-2.8,0-5.2,0.6-7.4,1.8
		c-2.2,1.2-3.8,2.9-5,5.1c-1.2,2.2-1.8,4.8-1.8,7.6c0,2.9,0.6,5.4,1.8,7.6c1.2,2.2,2.9,3.9,5,5.1c2.2,1.2,4.6,1.8,7.4,1.8
		c4.7,0,8.7-2,12-6l9.2,8.3c-2.5,3.1-5.6,5.5-9.3,7.2c-3.7,1.7-8,2.5-12.6,2.5C267.8,695.3,263,694.1,258.7,691.9z"/>
	<path d="M316.1,643.1h14.5v39.6H355v11.5h-38.8V643.1z"/>
	<path d="M385.7,691.8c-4.3-2.3-7.7-5.5-10.1-9.5c-2.5-4-3.7-8.6-3.7-13.7s1.2-9.6,3.7-13.7c2.5-4,5.8-7.2,10.1-9.5
		c4.3-2.3,9.2-3.4,14.6-3.4s10.3,1.1,14.6,3.4c4.3,2.3,7.7,5.5,10.1,9.5c2.5,4,3.7,8.6,3.7,13.7s-1.2,9.6-3.7,13.7
		c-2.5,4-5.8,7.2-10.1,9.5c-4.3,2.3-9.2,3.4-14.6,3.4S390,694.1,385.7,691.8z M407.2,681.5c2.1-1.2,3.7-2.9,5-5.1
		c1.2-2.2,1.8-4.8,1.8-7.6c0-2.9-0.6-5.4-1.8-7.6c-1.2-2.2-2.9-3.9-5-5.1c-2.1-1.2-4.4-1.8-7-1.8c-2.6,0-4.9,0.6-7,1.8
		c-2.1,1.2-3.7,2.9-5,5.1c-1.2,2.2-1.8,4.8-1.8,7.6c0,2.9,0.6,5.4,1.8,7.6c1.2,2.2,2.9,3.9,5,5.1c2.1,1.2,4.4,1.8,7,1.8
		C402.8,683.3,405.1,682.7,407.2,681.5z"/>
	<path d="M529.2,643.1l-16.6,51.1h-15.5l-9.8-31.1l-10.2,31.1h-15.5l-16.6-51.1H460l10.3,32.6l10.8-32.6h13.3l10.3,32.9l10.7-32.9
		H529.2z"/>
	<path d="M597.6,643.1v51.1h-11.9L563.2,667v27.2H549v-51.1h11.9l22.6,27.2v-27.2H597.6z"/>
	<path d="M628.3,693.7c-3.9-1-7.1-2.4-9.5-4.1l4.7-10.7c2.3,1.5,4.9,2.7,8,3.6c3,0.9,6,1.4,8.9,1.4c5.5,0,8.3-1.4,8.3-4.2
		c0-1.5-0.8-2.5-2.4-3.2c-1.6-0.7-4.1-1.4-7.6-2.2c-3.8-0.8-7.1-1.7-9.6-2.7c-2.6-0.9-4.8-2.5-6.6-4.6c-1.9-2.1-2.8-4.9-2.8-8.5
		c0-3.1,0.9-5.9,2.6-8.4c1.7-2.5,4.2-4.5,7.6-5.9c3.4-1.5,7.5-2.2,12.4-2.2c3.4,0,6.7,0.4,9.9,1.1c3.3,0.8,6.1,1.9,8.6,3.3
		l-4.5,10.7c-4.9-2.6-9.6-3.9-14.2-3.9c-2.9,0-5,0.4-6.3,1.3c-1.3,0.9-2,2-2,3.3c0,1.4,0.8,2.4,2.3,3.1c1.6,0.7,4.1,1.4,7.5,2.1
		c3.9,0.8,7.1,1.7,9.7,2.7c2.6,0.9,4.8,2.5,6.6,4.5c1.9,2.1,2.8,4.9,2.8,8.4c0,3.1-0.9,5.8-2.6,8.3c-1.7,2.5-4.3,4.5-7.7,6
		c-3.4,1.5-7.5,2.2-12.4,2.2C636.2,695.3,632.2,694.7,628.3,693.7z"/>
</g>
<g>
	<path d="M319,804.8c-1.7-0.7-3.1-1.5-4-2.5l0.9-1.4c0.9,1,2.1,1.7,3.7,2.3c1.5,0.6,3.2,0.9,4.9,0.9c2.5,0,4.3-0.5,5.6-1.4
		c1.3-0.9,1.9-2.2,1.9-3.7c0-1.2-0.3-2.1-1-2.8c-0.7-0.7-1.5-1.2-2.5-1.6c-1-0.4-2.3-0.8-4-1.1c-1.9-0.5-3.4-0.9-4.6-1.4
		c-1.1-0.4-2.1-1.1-2.9-2.1c-0.8-0.9-1.2-2.2-1.2-3.7c0-1.3,0.3-2.4,1-3.5c0.7-1,1.7-1.9,3.1-2.5c1.4-0.6,3.1-0.9,5.1-0.9
		c1.4,0,2.8,0.2,4.2,0.6c1.4,0.4,2.6,1,3.6,1.7l-0.7,1.5c-1-0.7-2.2-1.3-3.4-1.6s-2.5-0.6-3.7-0.6c-2.4,0-4.2,0.5-5.4,1.4
		c-1.2,1-1.9,2.2-1.9,3.7c0,1.2,0.3,2.1,1,2.8s1.5,1.2,2.5,1.6c1,0.4,2.3,0.8,4,1.2c1.9,0.5,3.4,0.9,4.6,1.4c1.1,0.4,2.1,1.1,2.9,2
		c0.8,0.9,1.2,2.1,1.2,3.6c0,1.3-0.3,2.4-1,3.4c-0.7,1-1.7,1.9-3.1,2.5c-1.4,0.6-3.1,0.9-5.2,0.9C322.6,805.7,320.8,805.4,319,804.8
		z"/>
	<path d="M347.6,779.6h1.9v25.9h-1.9V779.6z"/>
	<path d="M387,779.6v25.9h-1.6l-17.6-22.5v22.5h-1.9v-25.9h1.6l17.6,22.5v-22.5H387z"/>
	<path d="M407.5,804c-2-1.1-3.6-2.7-4.8-4.7c-1.2-2-1.8-4.2-1.8-6.7c0-2.5,0.6-4.7,1.8-6.7c1.2-2,2.8-3.6,4.8-4.7s4.3-1.7,6.9-1.7
		c1.9,0,3.6,0.3,5.2,0.9c1.6,0.6,2.9,1.5,4,2.7l-1.2,1.2c-2.1-2-4.7-3.1-8-3.1c-2.2,0-4.1,0.5-5.9,1.5c-1.8,1-3.2,2.3-4.2,4.1
		c-1,1.7-1.5,3.7-1.5,5.8c0,2.1,0.5,4.1,1.5,5.8c1,1.7,2.4,3.1,4.2,4.1c1.8,1,3.7,1.5,5.9,1.5c3.2,0,5.9-1,8-3.1l1.2,1.2
		c-1.1,1.2-2.5,2.1-4.1,2.7c-1.6,0.6-3.3,0.9-5.2,0.9C411.8,805.7,409.6,805.2,407.5,804z"/>
	<path d="M455.2,803.8v1.7h-17.9v-25.9h17.3v1.7h-15.4v10.2H453v1.7h-13.8v10.6H455.2z"/>
	<path d="M501.2,803.8v1.7h-17.8v-1.3l11-10.9c1.4-1.4,2.4-2.7,2.9-3.7c0.5-1,0.8-2.1,0.8-3.2c0-1.7-0.6-2.9-1.7-3.9
		c-1.1-0.9-2.7-1.4-4.9-1.4c-1.6,0-3.1,0.2-4.3,0.7c-1.2,0.5-2.3,1.2-3.2,2.3l-1.3-1.2c1-1.1,2.2-2,3.8-2.6c1.5-0.6,3.2-0.9,5.2-0.9
		c2.5,0,4.6,0.6,6.1,1.8c1.5,1.2,2.3,2.9,2.3,5c0,1.3-0.3,2.6-0.9,3.8s-1.7,2.6-3.3,4.2l-9.5,9.5H501.2z"/>
	<path d="M516.8,804.1c-1.5-1.1-2.7-2.6-3.6-4.6c-0.9-2-1.3-4.3-1.3-7s0.4-5,1.3-7c0.9-2,2-3.5,3.6-4.6c1.5-1.1,3.3-1.6,5.3-1.6
		c2,0,3.7,0.5,5.3,1.6s2.7,2.6,3.6,4.6c0.9,2,1.3,4.3,1.3,7s-0.4,5-1.3,7c-0.9,2-2,3.5-3.6,4.6c-1.5,1.1-3.3,1.6-5.3,1.6
		C520.1,805.7,518.4,805.2,516.8,804.1z M526.4,802.6c1.2-0.9,2.2-2.2,2.9-3.9c0.7-1.7,1-3.8,1-6.1s-0.3-4.4-1-6.1
		c-0.7-1.7-1.7-3-2.9-3.9s-2.7-1.4-4.3-1.4s-3.1,0.5-4.3,1.4s-2.2,2.2-2.9,3.9c-0.7,1.7-1,3.8-1,6.1s0.3,4.4,1,6.1
		c0.7,1.7,1.7,3,2.9,3.9s2.7,1.4,4.3,1.4S525.2,803.5,526.4,802.6z"/>
	<path d="M561,803.8v1.7h-17.8v-1.3l11-10.9c1.4-1.4,2.4-2.7,2.9-3.7c0.5-1,0.8-2.1,0.8-3.2c0-1.7-0.6-2.9-1.7-3.9
		c-1.1-0.9-2.7-1.4-4.9-1.4c-1.6,0-3.1,0.2-4.3,0.7c-1.2,0.5-2.3,1.2-3.2,2.3l-1.3-1.2c1-1.1,2.2-2,3.8-2.6c1.5-0.6,3.2-0.9,5.2-0.9
		c2.5,0,4.6,0.6,6.1,1.8c1.5,1.2,2.3,2.9,2.3,5c0,1.3-0.3,2.6-0.9,3.8s-1.7,2.6-3.3,4.2l-9.5,9.5H561z"/>
	<path d="M576.6,804.1c-1.5-1.1-2.7-2.6-3.6-4.6c-0.9-2-1.3-4.3-1.3-7s0.4-5,1.3-7c0.9-2,2-3.5,3.6-4.6c1.5-1.1,3.3-1.6,5.3-1.6
		c2,0,3.7,0.5,5.3,1.6s2.7,2.6,3.6,4.6c0.9,2,1.3,4.3,1.3,7s-0.4,5-1.3,7c-0.9,2-2,3.5-3.6,4.6c-1.5,1.1-3.3,1.6-5.3,1.6
		C579.9,805.7,578.2,805.2,576.6,804.1z M586.2,802.6c1.2-0.9,2.2-2.2,2.9-3.9c0.7-1.7,1-3.8,1-6.1s-0.3-4.4-1-6.1
		c-0.7-1.7-1.7-3-2.9-3.9s-2.7-1.4-4.3-1.4s-3.1,0.5-4.3,1.4s-2.2,2.2-2.9,3.9c-0.7,1.7-1,3.8-1,6.1s0.3,4.4,1,6.1
		c0.7,1.7,1.7,3,2.9,3.9s2.7,1.4,4.3,1.4S585,803.5,586.2,802.6z"/>
</g>
<path class="st3" d="M758,137.1l-15.3,25.5c-33.2,55.1-104.3,73.6-160.1,41.6c0,0,0,0,0,0c-13.4-8.1-27.8-14.7-43.8-18.9
	c-16-4.2-32.4-6.3-49.1-6.3c-15.8,0-28.1,2.3-36.8,6.8c-8.7,4.5-13.1,9.8-13.1,16c0,6.1,3.9,11,11.9,14.5"/>
<circle class="st6" cx="453.5" cy="269.1" r="56.7"/>
<g>
	<path class="st8" d="M546,244.4c15,5.8,28,14.8,39,27.1c11,12.3,16.5,28.4,16.5,48.4c0,25.2-6.9,47.3-20.8,66.3
		c-13.9,19-33.7,33.8-59.5,44.3c-25.8,10.5-56.2,15.7-91,15.7c-29.4,0-57-3.1-82.8-9.4c-25.8-6.3-47.1-14.6-63.9-24.9"/>
	<path class="st8" d="M361.1,293.7c-15-5.8-28-14.8-39-27.1c-11-12.3-16.5-28.4-16.5-48.4c0-25.2,6.9-47.3,20.8-66.3
		c13.9-19,33.7-33.8,59.5-44.3c25.8-10.5,56.2-15.7,91-15.7c29.4,0,57,3.1,82.8,9.4c25.8,6.3,47.1,14.6,63.9,24.9"/>
</g>
<path class="st3" d="M149.1,401l15.3-25.5c33.2-55.1,104.2-73.4,160.1-41.6c0,0,0,0,0,0c13.4,8.1,27.8,14.7,43.8,18.9
	c16,4.2,32.4,6.3,49.1,6.3c15.8,0,28.1-2.3,36.8-6.8c8.7-4.5,13.1-9.8,13.1-16c0-6.1-3.9-11-11.9-14.5"/>
</svg>
