<svg xmlns="http://www.w3.org/2000/svg" viewBox="0 0 1940 2210.02"><defs><style>.cls-1,.cls-10,.cls-11,.cls-13,.cls-14,.cls-15,.cls-16,.cls-17,.cls-2,.cls-22,.cls-23,.cls-24,.cls-25,.cls-26,.cls-31,.cls-32,.cls-34,.cls-36,.cls-39,.cls-40,.cls-5,.cls-7,.cls-8,.cls-9{fill:none;stroke-miterlimit:10;}.cls-1{stroke:#dd579d;}.cls-1,.cls-10,.cls-14,.cls-15,.cls-16,.cls-17,.cls-2,.cls-7,.cls-8,.cls-9{stroke-width:7.5px;}.cls-2{stroke:#b5c047;}.cls-3{font-size:36px;}.cls-19,.cls-27,.cls-3,.cls-33,.cls-35,.cls-37{font-family:Montserrat-ExtraBold, Montserrat;font-weight:800;}.cls-4{letter-spacing:0.2em;}.cls-11,.cls-25,.cls-31,.cls-5{stroke:#c41718;}.cls-13,.cls-5{stroke-width:5px;}.cls-27,.cls-33,.cls-35,.cls-37,.cls-6{fill:#c41718;}.cls-7{stroke:#e85952;}.cls-8{stroke:#eda546;}.cls-9{stroke:#f6cd53;}.cls-10{stroke:#629af4;}.cls-11{stroke-width:20px;}.cls-12,.cls-19{fill:#fff;}.cls-13,.cls-24,.cls-32,.cls-39{stroke:#000;}.cls-14{stroke:#60bbb7;}.cls-15{stroke:#ef9aa8;}.cls-16{stroke:#9a69d2;}.cls-17{stroke:#5ca3d3;}.cls-18{fill:#5ca3d3;}.cls-19{font-size:47.32px;letter-spacing:0.1em;}.cls-20{letter-spacing:0.1em;}.cls-21{letter-spacing:0.1em;}.cls-22,.cls-23,.cls-36,.cls-40{stroke:#fff;}.cls-22{stroke-width:10px;}.cls-23,.cls-39{stroke-width:2.5px;}.cls-24,.cls-40{stroke-width:5.9px;}.cls-25{stroke-width:4.56px;}.cls-26,.cls-34{stroke:#1d1d1b;}.cls-26{stroke-width:5.9px;}.cls-27,.cls-37{font-size:25.74px;}.cls-27{letter-spacing:0.08em;}.cls-28{letter-spacing:0.06em;}.cls-29{letter-spacing:0.07em;}.cls-30{letter-spacing:0.07em;}.cls-31{stroke-width:4.56px;}.cls-32,.cls-34,.cls-36{stroke-width:5.9px;}.cls-33{font-size:32.17px;letter-spacing:0.05em;}.cls-35{font-size:39.14px;letter-spacing:0.1em;}.cls-37{letter-spacing:0.09em;}.cls-38{letter-spacing:0.1em;}</style></defs><g id="Layer_1" data-name="Layer 1"><path class="cls-1" d="M1535.35,510.18H996.06a15,15,0,0,0-15,15h0a15,15,0,0,0,15,15h343.83a25,25,0,0,1,25,25V1780.55"/><polygon points="1484.9 1115.44 1800 1115.44 1800 1470.32 1765 1470.32 1765 1674.2 1519.9 1674.2 1519.9 1470.32 1484.9 1470.32 1484.9 1115.44"/><polygon points="1274.88 1339.95 485.91 1339.95 485.91 1489.21 140 1489.21 140 712.9 1274.88 712.9 1274.88 1339.95"/><path class="cls-2" d="M1454.89,1830.87V1112.41a25,25,0,0,1,25-25h122.39a25,25,0,0,1,25,25v48"/><text class="cls-3" transform="translate(1235.27 2162.2)"><tspan class="cls-4">BRÁN</tspan><tspan x="140.44" y="0">A</tspan></text><line class="cls-5" x1="1319.89" y1="2114.46" x2="1319.89" y2="2070.34"/><polygon class="cls-6" points="1340.34 2086.91 1336.67 2090.32 1319.89 2072.26 1303.1 2090.32 1299.44 2086.91 1319.89 2064.92 1340.34 2086.91"/><path class="cls-7" d="M1099.08,1579.21h60.8a25,25,0,0,1,25,25v243.52"/><path class="cls-8" d="M1394.89,1800.87V899a25,25,0,0,1,25-25h115.46"/><path class="cls-9" d="M1334.89,1770.87V595.18a25,25,0,0,0-25-25H976.05a25,25,0,0,1-25-25V274.62a25,25,0,0,1,25-25h559.3"/><path class="cls-10" d="M1304,1786.4V625.19a25,25,0,0,0-25-25H945.15a25,25,0,0,1-25-25v-40a25,25,0,0,0-25-25H519.28"/><polyline class="cls-11" points="1192.35 2110.02 100 2110.02 100 100 1840 100 1840 2110.02 1447.43 2110.02"/><circle class="cls-12" cx="726.24" cy="1339.95" r="39.8"/><line class="cls-13" x1="726.24" y1="1364.72" x2="726.24" y2="1320.6"/><polygon points="746.69 1337.17 743.03 1340.58 726.24 1322.52 709.46 1340.58 705.79 1337.17 726.24 1315.18 746.69 1337.17"/><path class="cls-14" d="M1424.89,1800.87V1082.41a25,25,0,0,1,25-25h182.56a25,25,0,0,1,25,25v380.8"/><path class="cls-15" d="M1274.88,1816.4V1389.72a25,25,0,0,0-25-25H866.05a25,25,0,0,1-25-25V1203.89a25,25,0,0,1,25-25h233.64a25,25,0,0,0,25-25v-216"/><path class="cls-16" d="M728.93,1035.43H786a25,25,0,0,1,25,25v309.29a25,25,0,0,0,25,25h383.84a25,25,0,0,1,25,25v417.64"/><path class="cls-17" d="M1214.88,1800.87V1449.72a25,25,0,0,0-25-25H751.24a25,25,0,0,0-25,25v104.49a25,25,0,0,1-25,25H335.62a25,25,0,0,1-25-25V1428.44"/><path class="cls-18" d="M611.13,1681.93a1.5,1.5,0,0,0,0-3,1.5,1.5,0,0,0,0,3Z"/><circle class="cls-6" cx="1319.89" cy="1895.96" r="157.54"/><text class="cls-19" transform="translate(1220.39 1885.99)">CH<tspan class="cls-20" x="82.53" y="0">E</tspan><tspan class="cls-21" x="119.01" y="0">CK</tspan><tspan class="cls-21"><tspan x="8.09" y="56.79">POINT</tspan></tspan></text><line class="cls-22" x1="781.04" y1="1339.95" x2="781.04" y2="1239.94"/><path class="cls-23" d="M871.05,1340a90,90,0,0,0-90-90"/><line class="cls-22" x1="180" y1="1469.21" x2="445.91" y2="1469.21"/><circle class="cls-12" cx="250.82" cy="1489.21" r="39.8"/><line class="cls-13" x1="250.82" y1="1513.97" x2="250.82" y2="1469.86"/><polygon points="271.27 1486.43 267.6 1489.84 250.82 1471.78 234.03 1489.84 230.37 1486.43 250.82 1464.44 271.27 1486.43"/></g><g id="symboly"><circle class="cls-24" cx="424.28" cy="510.18" r="95"/><path class="cls-6" d="M371.7,493.23l-11.41-2-3,4.87-7.79-1.36,16.65-24.9,7.51,1.32,7.22,29.08-7.94-1.39Zm-1.25-6L368.5,478l-5,8Z"/><path class="cls-6" d="M411.22,505.57l2.43-14.32-9,10.43-3.39-.59-4.93-12.47-2.44,13.91-7.05-1.23,4.73-27,6.28,1.1,6.76,17.24,12-13.95,6.29,1.1-4.66,27Z"/><path class="cls-6" d="M438.83,488.68l-1.05,5.93,11.92,2.09-1,5.9-11.91-2.09-1.62,9.26-7.64-1.34,4.74-27,21.16,3.71-1,5.9Z"/><path class="cls-6" d="M460.83,486.46l7.64,1.34-4.74,27-7.63-1.34Zm6.62-7.15,7.33,1.29-8.28,4.59-5.24-.92Z"/><path class="cls-6" d="M485.15,508.45,481.76,511l-1.18,6.75L473,516.41l4.73-27,7.56,1.32-2,11.22,12.41-9.39,8.41,1.48-13.12,10,9,17.07-8.86-1.56Z"/><line class="cls-25" x1="311.98" y1="490.38" x2="540.34" y2="530.41"/><circle class="cls-24" cx="424.28" cy="510.18" r="95"/><path class="cls-6" d="M371.7,493.23l-11.41-2-3,4.87-7.79-1.36,16.65-24.9,7.51,1.32,7.22,29.08-7.94-1.39Zm-1.25-6L368.5,478l-5,8Z"/><path class="cls-6" d="M411.22,505.57l2.43-14.32-9,10.43-3.39-.59-4.93-12.47-2.44,13.91-7.05-1.23,4.73-27,6.28,1.1,6.76,17.24,12-13.95,6.29,1.1-4.66,27Z"/><path class="cls-6" d="M438.83,488.68l-1.05,5.93,11.92,2.09-1,5.9-11.91-2.09-1.62,9.26-7.64-1.34,4.74-27,21.16,3.71-1,5.9Z"/><path class="cls-6" d="M460.83,486.46l7.64,1.34-4.74,27-7.63-1.34Zm6.62-7.15,7.33,1.29-8.28,4.59-5.24-.92Z"/><path class="cls-6" d="M485.15,508.45,481.76,511l-1.18,6.75L473,516.41l4.73-27,7.56,1.32-2,11.22,12.41-9.39,8.41,1.48-13.12,10,9,17.07-8.86-1.56Z"/><line class="cls-25" x1="311.98" y1="490.38" x2="540.34" y2="530.41"/><circle class="cls-26" cx="1630.35" cy="249.62" r="95"/><text class="cls-27" transform="translate(1555.51 234.79) rotate(9.95)">Z<tspan class="cls-28" x="19.41" y="0">V</tspan><tspan x="40.67" y="0">ĚŘIN</tspan><tspan class="cls-29" x="114.2" y="0">E</tspan><tspan class="cls-30" x="133.4" y="0">C</tspan></text><line class="cls-31" x1="1518.05" y1="229.82" x2="1746.41" y2="269.86"/><circle class="cls-32" cx="1630.35" cy="510.18" r="95"/><text class="cls-33" transform="translate(1554.47 494.98) rotate(9.95)">SKLENÍK</text><line class="cls-25" x1="1518.05" y1="490.38" x2="1746.41" y2="530.41"/><circle class="cls-34" cx="1630.35" cy="874.03" r="95"/><text class="cls-35" transform="translate(1577.55 862.47) rotate(9.95)">GRIL</text><line class="cls-25" x1="1518.05" y1="854.22" x2="1746.41" y2="894.26"/><circle class="cls-36" cx="1642.45" cy="1556.21" r="95"/><text class="cls-33" transform="translate(1566.57 1541.01) rotate(9.95)">SKLENÍK</text><line class="cls-25" x1="1530.15" y1="1536.41" x2="1758.51" y2="1576.44"/><circle class="cls-36" cx="1642.45" cy="1255.44" r="95"/><path class="cls-6" d="M1577.64,1213.94l12.76,2.24a18.27,18.27,0,0,1,7.58,3,12.7,12.7,0,0,1,4.49,5.64,14.63,14.63,0,0,1-2.5,14.27,12.71,12.71,0,0,1-6.15,3.77,18.29,18.29,0,0,1-8.15.28l-12.76-2.24Zm8.79,23.08a7.89,7.89,0,0,0,5.91-1,8.19,8.19,0,0,0,1.91-10.87,7.89,7.89,0,0,0-5.22-2.94l-4.82-.85-2.6,14.8Z"/><path class="cls-6" d="M1613.34,1220.2l7.64,1.34-4.74,27-7.63-1.34Zm6.62-7.14,7.33,1.28-8.28,4.59-5.24-.92Z"/><path class="cls-6" d="M1630.27,1223.17l7.63,1.34-3.67,20.94,12.87,2.25-1.06,6.06-20.51-3.6Z"/><path class="cls-6" d="M1683.32,1232.48l-4.74,27-6.28-1.11-9.39-16.47-2.52,14.38-7.48-1.31,4.73-27,6.28,1.11,9.39,16.47,2.53-14.38Z"/><path class="cls-6" d="M1706.84,1259l-11.41-2-3,4.87-7.78-1.37,16.65-24.9,7.51,1.32L1716,1266l-7.94-1.4Zm-1.25-6-2-9.25-5,8Z"/><line class="cls-25" x1="1530.15" y1="1235.64" x2="1758.51" y2="1275.68"/><circle class="cls-26" cx="1003.77" cy="1579.21" r="95"/><text class="cls-37" transform="translate(928.78 1564.36) rotate(9.95)">C<tspan class="cls-38" x="21.26" y="0">ARABAR</tspan></text><line class="cls-31" x1="891.47" y1="1559.41" x2="1119.83" y2="1599.45"/><circle class="cls-36" cx="308.74" cy="1333.44" r="95"/><path class="cls-6" d="M252.15,1306.69l6.75,1.18-2,11.18a17.78,17.78,0,0,1-5.77,1.62,21.91,21.91,0,0,1-6.17-.17,16.37,16.37,0,0,1-7.32-3.14,13.54,13.54,0,0,1-4.44-5.92,14.8,14.8,0,0,1,2.54-14.5,13.47,13.47,0,0,1,6.24-4,16.7,16.7,0,0,1,8.06-.43,17.43,17.43,0,0,1,6.56,2.46,13.16,13.16,0,0,1,4.37,4.54l-5.63,3.54a8.67,8.67,0,0,0-6-4.15,7.38,7.38,0,0,0-9.07,6.36,8.22,8.22,0,0,0,.27,4.15,6.9,6.9,0,0,0,2.22,3.22,8,8,0,0,0,3.8,1.67,9.79,9.79,0,0,0,4.28-.16Z"/><path class="cls-6" d="M284.15,1321.4l-11.41-2-3.05,4.87-7.78-1.36,16.65-24.9,7.51,1.32,7.22,29.08-7.94-1.39Zm-1.25-6-2-9.24-5,8Z"/><path class="cls-6" d="M312.36,1324.36l-4.16-.73-1.26,7.18-7.64-1.34,4.74-27,12.34,2.16a15.66,15.66,0,0,1,6.14,2.33,9.26,9.26,0,0,1,4.09,9.76,9.12,9.12,0,0,1-6.77,7.6l4.33,9.5L316,1332.4Zm5.86-12.12a5.31,5.31,0,0,0-3.36-1.66l-4.24-.75-1.39,7.91,4.24.74a5.46,5.46,0,0,0,3.73-.4,4.24,4.24,0,0,0,1-5.84Z"/><path class="cls-6" d="M350.69,1333.08l-11.41-2-3,4.88-7.79-1.37,16.65-24.9,7.52,1.32,7.21,29.09-7.94-1.4Zm-1.25-6-1.95-9.25-5,8Zm2.24-24.53,7.32,1.29-8.27,4.58-5.24-.92Z"/><path class="cls-6" d="M389.73,1339.09l-1.06,6.05-24.17-4.24.84-4.78,16.44-13.76L368.52,1320l1.06-6,23.25,4.07-.84,4.79-16.44,13.76Zm1.2-29.67-6,5-6.33-1.11-4-6.74,4.86.85,2.8,3.51,3.83-2.35Z"/><line class="cls-25" x1="196.44" y1="1313.63" x2="424.8" y2="1353.67"/><circle class="cls-36" cx="633.93" cy="1035.43" r="95"/><path class="cls-6" d="M569.78,1004.54l-6.82-1.19.88-5,19.87,3.49-.88,5-6.78-1.19-3,17.21-6.27-1.1Z"/><path class="cls-6" d="M604,1023.28l-.85,4.85L585.33,1025l3.89-22.19,17.4,3.06-.85,4.84-11.19-2-.66,3.74,9.86,1.73-.82,4.69-9.86-1.73-.71,4.06Z"/><path class="cls-6" d="M620.52,1025.1l-3.42-.6-1,5.9-6.28-1.1,3.89-22.19,10.14,1.78a13,13,0,0,1,5.06,1.92,7.91,7.91,0,0,1,2.92,3.45,8,8,0,0,1,.44,4.57,7.49,7.49,0,0,1-5.57,6.24l3.56,7.81-6.72-1.18Zm4.82-10a4.39,4.39,0,0,0-2.76-1.37l-3.49-.61-1.14,6.5,3.49.61a4.51,4.51,0,0,0,3.06-.33,3.48,3.48,0,0,0,.84-4.8Z"/><path class="cls-6" d="M652,1032.26l-9.38-1.64-2.5,4-6.4-1.12L647.43,1013l6.18,1.08,5.93,23.9-6.53-1.14Zm-1-4.94-1.61-7.6-4.09,6.59Z"/><path class="cls-6" d="M667.09,1039.12a13,13,0,0,1-3.81-2.5l2.87-4.26a13.52,13.52,0,0,0,3.18,2.19,13.29,13.29,0,0,0,3.76,1.28q3.61.63,3.93-1.17a1.51,1.51,0,0,0-.78-1.59,18.87,18.87,0,0,0-3.14-1.55,30.84,30.84,0,0,1-4-1.89,7.13,7.13,0,0,1-2.54-2.49,5.4,5.4,0,0,1-.56-3.89,6.48,6.48,0,0,1,1.75-3.46,7.49,7.49,0,0,1,3.77-2,13.83,13.83,0,0,1,5.57,0,20.06,20.06,0,0,1,4.22,1.25,13.65,13.65,0,0,1,3.49,2.1l-2.76,4.32a13.14,13.14,0,0,0-5.84-2.79,5.31,5.31,0,0,0-2.82.07,1.69,1.69,0,0,0-1.11,1.3,1.44,1.44,0,0,0,.78,1.51,18.54,18.54,0,0,0,3.1,1.49,30,30,0,0,1,4,1.89,7.38,7.38,0,0,1,2.53,2.47,5.3,5.3,0,0,1,.58,3.87,6.28,6.28,0,0,1-1.74,3.42,7.63,7.63,0,0,1-3.78,2,13.6,13.6,0,0,1-5.56,0A20.64,20.64,0,0,1,667.09,1039.12Z"/><path class="cls-6" d="M703.77,1041.34l-9.38-1.64-2.49,4-6.41-1.12,13.69-20.47,6.18,1.09,5.93,23.9-6.53-1.14Zm-1-4.95-1.61-7.6-4.1,6.6Z"/><line class="cls-25" x1="521.63" y1="1015.63" x2="749.99" y2="1055.66"/><circle class="cls-36" cx="633.93" cy="1035.43" r="95"/><path class="cls-6" d="M569.78,1004.54l-6.82-1.19.88-5,19.87,3.49-.88,5-6.78-1.19-3,17.21-6.27-1.1Z"/><path class="cls-6" d="M604,1023.28l-.85,4.85L585.33,1025l3.89-22.19,17.4,3.06-.85,4.84-11.19-2-.66,3.74,9.86,1.73-.82,4.69-9.86-1.73-.71,4.06Z"/><path class="cls-6" d="M620.52,1025.1l-3.42-.6-1,5.9-6.28-1.1,3.89-22.19,10.14,1.78a13,13,0,0,1,5.06,1.92,7.91,7.91,0,0,1,2.92,3.45,8,8,0,0,1,.44,4.57,7.49,7.49,0,0,1-5.57,6.24l3.56,7.81-6.72-1.18Zm4.82-10a4.39,4.39,0,0,0-2.76-1.37l-3.49-.61-1.14,6.5,3.49.61a4.51,4.51,0,0,0,3.06-.33,3.48,3.48,0,0,0,.84-4.8Z"/><path class="cls-6" d="M652,1032.26l-9.38-1.64-2.5,4-6.4-1.12L647.43,1013l6.18,1.08,5.93,23.9-6.53-1.14Zm-1-4.94-1.61-7.6-4.09,6.59Z"/><path class="cls-6" d="M667.09,1039.12a13,13,0,0,1-3.81-2.5l2.87-4.26a13.52,13.52,0,0,0,3.18,2.19,13.29,13.29,0,0,0,3.76,1.28q3.61.63,3.93-1.17a1.51,1.51,0,0,0-.78-1.59,18.87,18.87,0,0,0-3.14-1.55,30.84,30.84,0,0,1-4-1.89,7.13,7.13,0,0,1-2.54-2.49,5.4,5.4,0,0,1-.56-3.89,6.48,6.48,0,0,1,1.75-3.46,7.49,7.49,0,0,1,3.77-2,13.83,13.83,0,0,1,5.57,0,20.06,20.06,0,0,1,4.22,1.25,13.65,13.65,0,0,1,3.49,2.1l-2.76,4.32a13.14,13.14,0,0,0-5.84-2.79,5.31,5.31,0,0,0-2.82.07,1.69,1.69,0,0,0-1.11,1.3,1.44,1.44,0,0,0,.78,1.51,18.54,18.54,0,0,0,3.1,1.49,30,30,0,0,1,4,1.89,7.38,7.38,0,0,1,2.53,2.47,5.3,5.3,0,0,1,.58,3.87,6.28,6.28,0,0,1-1.74,3.42,7.63,7.63,0,0,1-3.78,2,13.6,13.6,0,0,1-5.56,0A20.64,20.64,0,0,1,667.09,1039.12Z"/><path class="cls-6" d="M703.77,1041.34l-9.38-1.64-2.49,4-6.41-1.12,13.69-20.47,6.18,1.09,5.93,23.9-6.53-1.14Zm-1-4.95-1.61-7.6-4.1,6.6Z"/><line class="cls-25" x1="521.63" y1="1015.63" x2="749.99" y2="1055.66"/><circle class="cls-12" cx="633.93" cy="1130.43" r="39.8"/><polyline class="cls-13" points="606.75 1117.04 618.34 1117.04 618.34 1128.63 629.93 1128.63 629.93 1140.23 641.52 1140.23 641.52 1151.82 653.12 1151.82"/><line class="cls-39" x1="655.96" y1="1131.16" x2="637.85" y2="1113.05"/><polygon points="650.94 1111.68 650.85 1114.18 638.53 1113.73 638.98 1126.05 636.48 1126.14 635.93 1111.13 650.94 1111.68"/><circle class="cls-40" cx="1124.69" cy="842.9" r="95"/><path class="cls-6" d="M1065.4,822.31l-2.79,2.09-1,5.54-6.21-1.09,3.89-22.18,6.21,1.09-1.62,9.22,10.21-7.71,6.91,1.21-10.79,8.23,7.37,14-7.29-1.27Z"/><path class="cls-6" d="M1085.1,833a11.24,11.24,0,0,1-3.68-4.89,11.53,11.53,0,0,1,7.2-15.2,14.38,14.38,0,0,1,12.65,2.22,11.52,11.52,0,0,1-3.53,20.09A14.37,14.37,0,0,1,1085.1,833Zm10.15-2.86a5.73,5.73,0,0,0,2.55-1.85,7,7,0,0,0,1.37-3.17,6.89,6.89,0,0,0-.21-3.46,5.86,5.86,0,0,0-1.76-2.61,6.07,6.07,0,0,0-2.91-1.32,6,6,0,0,0-3.18.26,5.64,5.64,0,0,0-2.54,1.85,7.4,7.4,0,0,0-1.17,6.62,5.77,5.77,0,0,0,1.77,2.62,6.34,6.34,0,0,0,6.08,1.06Z"/><path class="cls-6" d="M1111.05,838.38a13.23,13.23,0,0,1-3.81-2.49l2.87-4.27a13.52,13.52,0,0,0,3.18,2.19,13.29,13.29,0,0,0,3.76,1.28q3.62.63,3.93-1.17a1.51,1.51,0,0,0-.79-1.59,18.47,18.47,0,0,0-3.14-1.55,32.18,32.18,0,0,1-4-1.89,7.18,7.18,0,0,1-2.53-2.49,5.39,5.39,0,0,1-.56-3.88,6.4,6.4,0,0,1,1.75-3.47,7.53,7.53,0,0,1,3.76-2,13.68,13.68,0,0,1,5.57,0,19.38,19.38,0,0,1,4.23,1.24,13.59,13.59,0,0,1,3.48,2.1l-2.75,4.32a13.12,13.12,0,0,0-5.85-2.79,5.21,5.21,0,0,0-2.82.08,1.71,1.71,0,0,0-1.11,1.29,1.47,1.47,0,0,0,.78,1.51,19.15,19.15,0,0,0,3.11,1.49,32.5,32.5,0,0,1,4,1.89,7.32,7.32,0,0,1,2.54,2.47,5.33,5.33,0,0,1,.58,3.88,6.32,6.32,0,0,1-1.74,3.41,7.63,7.63,0,0,1-3.78,2,13.43,13.43,0,0,1-5.56,0A20.51,20.51,0,0,1,1111.05,838.38Z"/><path class="cls-6" d="M1138,825.59l-6.81-1.19.87-5,19.87,3.49-.87,5-6.78-1.18-3,17.2-6.28-1.1Z"/><path class="cls-6" d="M1161.89,839.23l-2.79,2.1-1,5.54-6.21-1.09,3.89-22.18,6.21,1.09-1.62,9.22,10.21-7.71,6.91,1.21-10.79,8.23,7.37,14-7.29-1.28Z"/><path class="cls-6" d="M1191.9,848.35l-9.37-1.64-2.5,4-6.4-1.12,13.68-20.47,6.18,1.09,5.93,23.9-6.53-1.14Zm-1-4.94-1.61-7.6-4.1,6.59Z"/><line class="cls-25" x1="1012.39" y1="823.1" x2="1240.75" y2="863.14"/><circle class="cls-12" cx="1124.69" cy="937.9" r="39.8"/><polyline class="cls-13" points="1097.51 924.51 1109.1 924.51 1109.1 936.11 1120.69 936.11 1120.69 947.7 1132.29 947.7 1132.29 959.29 1143.88 959.29"/><line class="cls-39" x1="1144.8" y1="936.72" x2="1126.69" y2="918.61"/><polygon points="1146.17 923.63 1143.67 923.72 1144.13 936.04 1131.81 935.59 1131.72 938.09 1146.72 938.63 1146.17 923.63"/></g></svg>